<?xml version="1.0" standalone="no"?>
<!DOCTYPE svg PUBLIC "-//W3C//DTD SVG 20010904//EN"
 "http://www.w3.org/TR/2001/REC-SVG-20010904/DTD/svg10.dtd">
<svg version="1.0" xmlns="http://www.w3.org/2000/svg"
 width="960.000000pt" height="960.000000pt" viewBox="0 0 960.000000 960.000000"
 preserveAspectRatio="xMidYMid meet">
<metadata>
Created by potrace 1.11, written by Peter Selinger 2001-2013
</metadata>
<g transform="translate(0.000000,960.000000) scale(0.100000,-0.100000)"
fill="#000000" stroke="none">
<path d="M2495 6998 c-22 -5 -52 -7 -67 -4 -21 4 -26 2 -22 -9 3 -8 -9 -29
-29 -49 -36 -38 -55 -39 -32 -2 9 14 10 28 4 44 -11 28 -29 21 -22 -8 3 -12 0
-20 -6 -20 -7 0 -9 5 -6 10 3 6 1 10 -4 10 -6 0 -11 -6 -11 -14 0 -11 -15 -14
-62 -14 -59 1 -61 0 -62 -25 -2 -40 -22 -56 -40 -32 -13 18 -15 17 -25 -20 -9
-32 -8 -41 4 -48 17 -9 20 -37 4 -37 -5 0 -7 -5 -4 -10 4 -7 14 -2 27 12 11
13 15 24 9 26 -16 5 -13 22 4 22 8 0 19 -17 25 -40 16 -59 29 -40 28 40 -1 79
6 95 23 56 9 -20 9 -32 1 -51 -7 -14 -12 -37 -12 -51 0 -24 2 -23 33 17 39 51
61 62 52 26 -4 -14 -2 -28 4 -32 7 -3 11 -3 10 2 -4 25 2 53 11 48 6 -4 7 -11
4 -17 -4 -6 3 -18 16 -28 19 -15 21 -20 10 -39 -20 -38 -5 -33 21 6 23 35 60
62 45 32 -4 -8 2 -3 13 11 11 14 21 28 21 33 0 4 5 7 10 7 15 0 12 -28 -6 -56
-9 -13 -18 -44 -20 -67 -4 -51 12 -32 21 25 7 41 20 51 22 17 1 -12 4 -23 6
-25 9 -9 33 8 55 39 21 30 22 30 22 8 0 -23 -23 -71 -49 -104 -11 -13 -16 -15
-23 -5 -5 9 -8 6 -8 -9 0 -17 5 -21 25 -18 33 3 38 9 38 43 0 24 6 30 39 40
22 7 43 10 47 7 18 -11 18 -44 0 -61 -20 -18 -27 -40 -9 -29 15 9 12 -8 -7
-35 l-17 -25 24 20 23 20 -7 -21 c-4 -14 -1 -26 11 -35 10 -8 14 -9 10 -2 -5
7 1 16 12 22 29 16 39 13 17 -4 -23 -17 -14 -20 15 -5 13 7 19 7 19 0 0 -5 6
-10 14 -10 11 0 9 -11 -10 -45 -13 -25 -21 -45 -18 -45 6 0 45 29 101 75 l36
30 -18 -35 c-11 -19 -20 -44 -20 -56 -1 -11 -5 -26 -9 -32 -14 -24 6 -11 47
29 23 23 53 48 66 57 22 15 24 15 36 -1 8 -11 20 -15 31 -11 14 4 12 0 -7 -18
-32 -28 -91 -62 -103 -59 -17 4 -33 -20 -28 -44 2 -14 7 -25 9 -25 15 0 108
53 119 68 11 14 11 11 2 -19 -9 -30 -19 -40 -59 -57 -30 -12 -49 -27 -49 -36
0 -14 4 -15 20 -6 18 9 20 8 20 -16 0 -20 4 -25 16 -20 9 3 18 6 20 6 2 0 4 5
4 11 0 5 -6 7 -12 4 -7 -4 5 10 26 29 45 42 55 43 79 16 15 -18 15 -21 2 -26
-27 -11 -17 -27 13 -19 80 21 97 24 82 12 -23 -18 -25 -41 -3 -33 12 4 10 -1
-7 -15 -14 -11 -19 -18 -12 -14 6 3 12 1 12 -5 0 -6 -7 -13 -15 -16 -10 -4
-13 -14 -9 -29 3 -13 1 -33 -6 -44 -6 -12 -7 -21 -1 -21 5 0 11 6 14 13 3 9 9
9 24 0 16 -9 23 -8 35 3 16 16 71 27 62 13 -3 -5 -11 -9 -19 -9 -8 0 -11 -7
-8 -20 3 -11 0 -20 -6 -20 -5 0 -8 7 -5 15 8 21 -9 19 -37 -5 -23 -18 -23 -19
-4 -20 14 -1 8 -7 -19 -20 -44 -20 -59 -18 -73 12 -8 19 -10 19 -25 4 -23 -22
-26 -20 -20 11 4 22 2 25 -13 20 -13 -6 -16 -3 -10 10 13 34 10 38 -32 38 -40
0 -42 -1 -36 -25 3 -14 10 -30 15 -37 16 -20 -8 -24 -26 -4 -11 12 -13 21 -7
25 15 10 2 36 -15 29 -9 -3 -14 2 -14 13 0 15 -6 12 -26 -13 -33 -43 -48 -42
-30 2 13 31 13 35 0 35 -7 0 -14 -9 -14 -21 0 -11 -4 -17 -10 -14 -5 3 -10 2
-10 -3 0 -5 -11 -14 -25 -20 -27 -12 -32 -8 -36 28 -3 29 1 40 16 40 8 0 15 5
15 10 0 6 -9 10 -20 10 -12 0 -20 -7 -20 -17 0 -13 -3 -14 -8 -6 -6 9 -12 7
-25 -8 -10 -11 -22 -17 -27 -14 -5 3 -14 -4 -20 -15 -6 -11 -16 -18 -21 -14
-6 3 -19 -2 -30 -12 -10 -9 -19 -14 -19 -10 0 4 -9 2 -20 -4 -16 -8 -20 -8
-20 4 0 15 -16 15 -62 0 -19 -6 -20 -3 -15 25 8 37 -2 39 -32 7 -24 -25 -51
-25 -51 0 0 17 -5 17 -31 3 -11 -6 -24 -20 -29 -32 -7 -17 -9 -18 -9 -4 -1 21
-14 22 -31 2 -7 -8 -18 -15 -25 -15 -7 0 -25 -13 -38 -30 -23 -26 -26 -28 -31
-12 -5 14 -16 18 -45 18 -34 -1 -45 -7 -76 -43 -20 -24 -43 -43 -52 -43 -11 0
-13 -5 -8 -17 8 -18 9 -37 6 -80 -1 -30 -21 -30 -21 0 0 22 -36 63 -43 49 -2
-4 -3 -21 -2 -39 2 -24 -2 -34 -16 -38 -11 -4 -19 -10 -19 -14 0 -4 -11 -13
-24 -19 -24 -11 -24 -12 -10 -41 17 -35 11 -59 -11 -41 -7 6 -15 7 -18 3 -7
-13 27 -70 40 -66 6 2 14 -1 18 -6 9 -16 25 -13 25 4 0 8 -3 14 -8 12 -4 -1
-8 2 -10 8 -7 19 17 16 37 -4 20 -20 41 -28 41 -15 0 3 -10 19 -22 34 -56 70
-67 85 -63 89 3 2 10 -1 17 -7 7 -6 18 -10 23 -10 6 0 15 -15 20 -33 22 -73
41 -79 37 -11 -3 36 1 52 13 62 15 12 18 12 27 -3 6 -12 16 -16 28 -12 15 5
23 -1 34 -27 l14 -33 -5 53 c-5 42 -3 52 8 50 10 -2 13 7 11 32 -2 33 -2 34
13 16 8 -11 15 -31 15 -46 0 -14 7 -36 16 -48 9 -13 13 -31 9 -40 -5 -13 -3
-14 6 -5 11 11 9 24 -17 87 -7 18 -6 18 18 2 29 -19 36 -11 32 42 -3 50 13 38
25 -18 14 -63 14 -90 1 -90 -5 0 -10 -4 -10 -10 0 -16 37 -11 44 6 3 8 -1 28
-8 43 -13 25 -13 31 4 59 32 52 66 34 61 -31 -2 -18 2 -27 11 -25 9 2 12 -5
10 -21 -4 -23 -3 -23 13 -8 9 9 14 20 11 25 -2 4 -1 14 5 22 6 12 9 9 9 -10 0
-15 -5 -31 -12 -38 -7 -7 -8 -12 -4 -12 4 0 17 10 28 23 16 17 18 18 14 4 -3
-11 -2 -16 4 -12 6 3 10 12 10 19 0 8 8 13 18 12 13 -1 18 -13 22 -51 l5 -50
33 80 c27 68 32 75 31 45 -2 -59 0 -72 12 -64 8 4 9 0 4 -15 -3 -11 -2 -21 2
-21 5 0 14 26 21 58 16 76 33 108 56 104 11 -2 23 2 28 10 6 9 7 4 5 -13 -1
-15 -8 -33 -14 -41 -7 -7 -16 -26 -22 -41 -6 -15 -15 -27 -20 -27 -18 0 -18
-38 0 -61 10 -13 19 -18 19 -11 0 7 11 28 24 45 13 18 27 46 31 62 l8 30 6
-25 c8 -30 2 -70 -10 -70 -15 0 -38 -55 -29 -69 6 -11 9 -10 16 2 8 13 12 12
25 -11 12 -22 13 -34 5 -60 l-11 -33 -25 23 c-34 32 -53 33 -47 2 2 -13 0 -27
-6 -31 -5 -3 -7 -1 -3 5 3 6 2 13 -3 17 -10 6 -7 -27 4 -44 3 -6 -2 -14 -11
-19 -10 -5 -15 -16 -12 -24 3 -7 0 -22 -8 -32 -11 -16 -16 -17 -29 -6 -13 11
-14 10 -9 -4 3 -9 1 -16 -5 -16 -6 0 -11 -7 -11 -16 0 -22 -23 -12 -37 17 -13
24 -15 19 -16 -29 0 -20 -4 -23 -24 -19 -29 5 -46 -20 -32 -46 7 -11 6 -17 -1
-17 -5 0 -10 5 -10 12 0 14 -11 4 -14 -14 -2 -7 -6 -21 -11 -31 -4 -9 -5 -28
-3 -42 4 -21 3 -23 -14 -14 -20 11 -59 3 -70 -15 -4 -6 -8 -22 -8 -36 0 -14
-6 -35 -14 -46 -13 -18 -12 -22 9 -42 12 -12 25 -34 28 -49 l5 -28 -24 28
c-13 16 -24 25 -24 21 0 -3 -7 -1 -15 6 -9 7 -19 10 -22 6 -4 -4 -1 -11 7 -16
24 -15 20 -45 -8 -76 l-28 -30 23 -18 c28 -21 30 -36 3 -36 -11 0 -20 -3 -20
-8 0 -9 39 -35 63 -42 10 -3 18 -9 17 -14 -2 -12 29 -30 37 -22 4 3 1 6 -5 6
-7 0 -12 8 -12 19 0 11 -10 22 -22 26 -19 6 -20 8 -6 12 9 2 26 -1 37 -6 51
-28 47 -6 -8 35 -34 25 -61 48 -61 51 0 15 50 -14 77 -45 36 -41 51 -39 28 4
-25 48 -13 91 18 65 7 -5 23 -8 34 -5 15 4 25 0 33 -16 21 -39 22 -13 1 29
-24 46 -26 55 -9 45 6 -4 4 3 -5 17 -24 34 -21 46 6 21 13 -12 26 -19 30 -16
4 4 13 1 22 -6 23 -19 31 14 10 46 -30 46 -9 36 39 -18 29 -32 42 -54 35 -59
-6 -3 -7 -9 -2 -12 5 -3 15 -2 22 2 19 12 5 46 -24 59 -21 10 -25 19 -25 52 0
29 4 40 15 40 17 0 55 -35 55 -51 0 -5 5 -7 11 -3 7 4 20 -4 31 -17 11 -15 16
-18 12 -6 -5 13 -2 16 11 10 15 -5 17 -2 11 21 -5 20 -3 26 5 21 8 -5 9 -1 4
14 -5 17 -3 20 11 14 13 -5 15 -3 10 8 -4 8 6 -1 23 -20 50 -57 49 -31 -5 84
l-14 30 28 -32 c16 -18 34 -33 41 -33 6 0 14 -7 17 -15 4 -8 10 -12 16 -9 5 3
4 11 -3 20 -6 7 -24 39 -41 71 -27 52 -28 58 -13 69 9 7 14 17 10 23 -3 6 -2
11 2 11 11 0 36 -40 29 -47 -3 -3 1 -18 9 -34 9 -16 15 -32 14 -36 -5 -33 3
-51 26 -56 24 -4 26 -2 20 30 -3 18 -12 49 -20 69 -10 24 -11 33 -2 27 22 -13
40 -45 43 -76 1 -16 10 -37 19 -46 17 -15 17 -15 11 2 -4 14 -1 18 14 15 10
-2 19 0 20 5 1 22 -1 27 -12 27 -7 0 -21 19 -31 43 -17 40 -17 43 0 54 22 17
33 16 33 -2 0 -8 4 -15 8 -15 5 0 6 20 2 45 -7 43 -2 54 14 38 4 -5 11 -8 14
-8 4 0 16 -8 27 -18 11 -9 25 -17 30 -18 6 0 21 -10 34 -22 l24 -22 -12 22
c-7 15 -8 24 -1 28 6 4 8 16 4 28 -11 35 -13 68 -3 61 5 -3 9 -15 9 -27 0 -33
11 -67 21 -67 14 0 11 48 -3 53 -7 2 -9 8 -5 13 5 5 13 1 18 -9 6 -9 17 -23
25 -30 8 -6 24 -21 34 -31 13 -12 20 -15 20 -7 0 16 29 45 37 37 4 -3 1 -12
-5 -18 -17 -17 -15 -28 3 -22 20 8 19 -6 -2 -23 -17 -14 -17 -14 1 -8 19 6 19
5 1 -15 -22 -24 -14 -25 25 -5 16 8 31 24 35 35 4 11 11 17 17 14 7 -5 8 -2 3
6 -4 7 -2 16 6 20 18 12 55 -27 63 -67 4 -18 19 -41 34 -52 l27 -19 -28 5
c-15 3 -27 3 -27 0 0 -3 14 -33 31 -66 34 -66 44 -128 20 -123 -17 4 -31 -16
-31 -44 0 -12 -7 -21 -15 -21 -8 0 -15 4 -15 8 0 4 -7 9 -15 13 -25 9 -17 -12
16 -41 17 -16 38 -41 46 -57 14 -27 14 -29 -3 -23 -17 6 -17 5 1 -8 60 -43 60
-43 48 -56 -11 -11 -22 -9 -58 9 -26 13 -45 17 -45 11 0 -6 -9 -9 -20 -6 -11
3 -20 1 -20 -4 0 -12 16 -18 60 -23 19 -2 38 -4 42 -5 4 0 -4 -12 -18 -26 -23
-24 -25 -28 -12 -48 8 -12 29 -29 46 -37 38 -18 40 -28 10 -39 -36 -13 -113
19 -113 47 0 12 -5 21 -10 19 -13 -3 -7 -78 7 -94 14 -17 28 -16 50 4 10 9 18
12 18 6 0 -5 11 -23 25 -39 41 -48 50 -80 31 -109 -14 -21 -20 -23 -36 -15
-28 15 -31 13 -24 -16 7 -25 5 -27 -22 -20 l-29 6 25 -21 c24 -21 24 -21 5
-36 -19 -14 -18 -15 12 -8 19 4 34 2 38 -6 11 -17 -15 -28 -44 -18 -28 10 -24
6 28 -31 19 -13 20 -16 6 -26 -13 -10 -12 -14 11 -29 21 -14 24 -19 13 -26
-12 -8 -12 -11 1 -19 8 -5 11 -10 6 -10 -6 0 -2 -6 9 -14 17 -12 16 -13 -10
-20 -44 -11 -68 -31 -53 -43 26 -19 110 -45 134 -40 13 2 24 2 24 0 0 -9 -29
-33 -39 -33 -15 0 -32 -36 -25 -54 4 -12 0 -16 -16 -16 -11 0 -19 -4 -15 -9 3
-5 -7 -16 -22 -24 -16 -8 -73 -42 -127 -76 -55 -33 -114 -63 -131 -67 -31 -6
-32 -7 -27 -53 4 -43 0 -55 -34 -107 -21 -32 -40 -61 -42 -64 -7 -10 -21 26
-16 40 15 38 13 46 -17 63 -17 9 -35 15 -40 11 -13 -8 -11 -38 3 -52 9 -9 9
-15 1 -23 -8 -8 -15 -4 -27 13 -17 23 -17 23 -11 -12 l6 -35 -80 -38 c-43 -21
-95 -38 -115 -39 -32 -1 -34 -3 -30 -27 4 -20 -2 -33 -24 -55 -33 -30 -57 -31
-57 -1 0 33 -24 27 -65 -15 -36 -37 -39 -43 -25 -56 19 -19 19 -28 -1 -45 -12
-10 -20 -10 -34 -1 -15 9 -19 8 -23 -8 -7 -27 0 -30 36 -12 21 11 32 12 35 4
2 -7 10 -8 20 -3 9 5 28 14 42 19 24 10 24 11 3 11 -13 1 -23 5 -23 11 0 15
35 29 50 20 8 -5 18 -6 22 -4 4 3 8 -1 9 -8 0 -7 1 -28 2 -47 2 -42 29 -63 52
-41 18 18 37 109 36 168 -1 46 22 68 43 40 6 -8 17 -13 24 -11 15 6 16 -30 1
-60 -6 -12 -21 -31 -34 -42 -18 -15 -22 -27 -18 -47 3 -16 9 -28 13 -28 8 0
71 67 135 142 44 53 79 82 113 92 18 6 22 4 22 -14 0 -16 4 -20 16 -16 9 4 23
1 30 -5 11 -9 14 -8 14 3 0 7 13 19 30 25 34 13 41 3 30 -38 -5 -15 -5 -32 -1
-38 11 -18 25 4 50 79 25 74 36 92 70 109 23 13 23 12 17 -14 -4 -15 -3 -24 2
-21 6 3 13 23 17 43 14 74 51 117 75 88 9 -11 8 -31 -3 -84 -8 -39 -11 -70 -8
-69 23 2 31 -6 31 -34 1 -30 2 -32 15 -15 7 11 12 26 11 35 -2 10 -7 44 -11
77 l-7 60 29 -25 c64 -57 84 -58 132 -6 34 36 48 33 62 -14 11 -37 10 -44 -8
-68 -16 -21 -28 -26 -52 -24 -21 1 -31 -2 -31 -12 0 -18 20 -26 41 -15 8 4 21
4 28 0 14 -9 49 -4 67 10 5 5 27 6 48 2 24 -4 33 -9 25 -14 -18 -10 -20 -51
-2 -45 7 3 13 1 13 -5 0 -5 -7 -12 -15 -15 -20 -8 -19 -24 2 -24 15 0 15 -1
-1 -18 -13 -16 -14 -24 -5 -51 6 -17 9 -45 7 -61 -3 -22 -1 -27 8 -20 24 21
49 -2 45 -40 -1 -8 10 -1 24 17 23 29 28 31 50 21 28 -12 25 -20 -7 -25 -12
-2 -30 -11 -41 -20 -17 -16 -17 -18 -1 -30 10 -7 31 -13 46 -13 25 0 27 -2 17
-18 -8 -12 -9 -30 -4 -48 11 -40 12 -57 2 -70 -10 -15 15 -25 34 -13 8 5 21 9
29 8 9 0 6 -4 -8 -12 -27 -15 -19 -27 17 -27 49 0 73 -11 68 -31 -3 -11 -1
-19 5 -19 5 0 12 9 15 21 4 14 12 19 27 17 18 -3 21 -9 18 -43 -2 -21 -11 -45
-20 -53 -15 -12 -15 -13 3 -7 11 4 29 10 40 13 20 5 20 5 1 -16 -11 -12 -27
-22 -38 -22 -22 0 -23 -13 -3 -33 8 -8 11 -17 8 -21 -4 -3 1 -6 10 -6 10 0 17
-7 17 -16 0 -10 6 -14 14 -11 17 7 29 -54 12 -65 -6 -5 -2 -8 12 -8 15 0 22
-6 22 -20 0 -11 -5 -20 -10 -20 -7 0 -7 -6 0 -20 6 -11 18 -20 27 -20 15 0 15
-2 0 -18 -23 -25 -21 -34 5 -30 18 2 22 -2 22 -24 0 -14 -6 -33 -13 -42 -11
-13 -11 -16 0 -17 8 0 31 -2 51 -5 31 -4 39 0 57 24 15 21 17 32 9 40 -13 13
6 43 25 39 7 -1 12 5 12 13 0 8 6 19 13 23 6 4 12 19 12 32 0 13 5 27 10 30 6
3 10 11 10 18 0 8 -3 8 -12 -1 -7 -7 -18 -12 -25 -12 -18 0 -4 28 18 35 10 4
19 12 19 20 0 7 7 16 15 19 12 4 14 14 10 39 -4 19 -2 51 4 72 14 51 3 64 -20
26 -22 -36 -33 -40 -24 -8 6 18 5 20 -6 10 -7 -7 -16 -13 -21 -13 -12 0 8 45
21 46 24 3 25 5 11 15 -11 8 -12 12 -2 16 9 3 7 12 -8 30 -11 14 -20 33 -20
43 0 9 -3 20 -7 24 -12 12 -12 36 0 36 7 0 -6 11 -28 23 -26 15 -39 30 -38 41
0 10 -10 29 -23 41 -15 14 -21 26 -14 30 18 11 11 25 -15 25 -30 0 -33 16 -4
23 28 7 15 27 -18 27 -19 0 -23 3 -16 13 13 17 8 58 -7 67 -9 6 -2 13 25 24
48 21 52 20 66 -5 9 -17 8 -23 -2 -30 -8 -5 -9 -9 -4 -9 6 1 19 7 29 15 16 12
21 12 28 2 6 -9 12 -9 28 1 28 17 36 -5 20 -52 -7 -22 -8 -41 -2 -53 5 -10 7
-23 5 -30 -8 -23 54 4 122 52 70 50 95 79 95 107 0 10 5 18 10 18 6 0 10 -9
10 -20 0 -11 5 -20 10 -20 6 0 10 -16 10 -36 0 -28 5 -37 21 -41 12 -4 18 -11
15 -20 -3 -8 -1 -11 4 -8 6 3 10 1 10 -6 0 -9 3 -9 14 0 13 11 46 6 46 -8 0
-4 -7 -17 -16 -30 -16 -22 -16 -23 4 -12 11 6 28 11 37 11 12 0 14 -4 5 -19
-15 -29 -12 -39 5 -17 8 11 15 28 15 38 0 10 6 18 13 18 6 1 1 9 -12 20 -19
17 -21 21 -7 26 16 6 30 46 41 116 7 44 27 58 84 58 55 0 71 8 86 43 l12 30
15 -45 c15 -42 15 -45 -8 -71 -13 -15 -26 -43 -30 -63 -4 -20 -13 -38 -21 -41
-17 -7 -42 24 -43 52 -1 30 -14 46 -33 40 -38 -15 -24 -79 16 -73 18 2 21 -1
19 -22 -2 -14 -10 -35 -18 -47 -13 -21 -12 -21 29 -22 23 0 57 -5 76 -10 38
-12 56 -3 66 29 3 11 14 21 23 24 27 9 61 103 52 143 -9 38 11 47 32 13 14
-21 38 -27 38 -9 0 6 11 -3 25 -19 27 -33 33 -54 11 -46 -16 6 -51 -49 -61
-97 -4 -19 -4 -31 -1 -28 4 4 23 3 42 -1 34 -8 34 -7 34 26 0 36 13 45 25 17
6 -16 8 -15 16 5 8 21 14 23 71 20 75 -3 88 4 88 43 0 22 -5 29 -20 29 -18 0
-25 -10 -21 -32 0 -5 -6 -8 -14 -8 -8 0 -17 12 -20 28 -4 15 -13 45 -21 67
-14 38 -13 41 8 57 13 10 34 21 48 24 53 12 61 16 93 42 17 14 26 19 20 12
-17 -19 -17 -70 0 -70 8 0 29 21 47 46 18 25 46 60 63 77 l30 31 -7 -40 c-6
-32 -5 -37 5 -26 11 10 17 8 31 -10 l18 -23 6 23 c10 35 29 20 27 -22 -2 -39
7 -45 27 -21 13 16 24 12 26 -8 0 -7 2 -20 2 -29 1 -10 9 -18 17 -18 8 0 15
-4 15 -8 0 -4 12 -9 27 -10 18 -1 49 -22 87 -60 33 -31 52 -47 42 -35 -10 12
-16 30 -14 40 5 25 76 29 94 5 11 -14 12 -8 7 38 -5 52 -4 56 17 57 12 1 30 9
40 18 29 27 31 1 3 -40 -48 -71 -34 -118 29 -96 17 6 40 19 50 28 16 15 32 12
33 -5 3 -30 23 -56 57 -73 22 -11 42 -29 45 -39 3 -12 11 -16 20 -13 12 5 14
1 9 -15 -13 -41 16 -36 55 9 37 43 54 45 24 2 -26 -37 17 -36 90 3 54 29 69
33 86 23 14 -7 19 -17 16 -30 -4 -13 -1 -19 6 -16 7 2 12 22 12 45 0 25 7 48
16 58 16 15 20 12 68 -35 34 -34 56 -49 68 -45 13 4 12 0 -4 -12 -13 -9 -23
-26 -23 -38 1 -20 2 -19 25 7 14 15 25 34 25 41 0 18 27 39 39 32 9 -6 4 -28
-19 -92 -6 -15 -3 -24 11 -32 25 -16 49 -15 49 1 1 7 6 5 14 -5 9 -13 16 -14
24 -6 8 8 21 9 47 1 26 -8 35 -8 35 0 1 35 16 39 74 19 31 -11 57 -22 56 -26
0 -3 0 -9 0 -12 0 -4 12 5 26 19 32 32 69 24 69 -16 -1 -20 3 -24 16 -17 9 5
29 11 45 14 16 3 35 15 43 26 14 21 15 21 25 -12 14 -43 38 -47 53 -8 12 33
46 42 57 14 9 -22 8 -24 -9 -24 -8 0 -15 -4 -15 -10 0 -19 24 -10 47 18 26 31
43 19 36 -26 l-5 -27 22 25 c38 45 90 124 90 138 0 7 -12 28 -27 46 -23 29
-30 33 -54 26 -45 -13 -58 14 -35 71 6 13 2 16 -19 13 -21 -2 -29 3 -37 26 -5
16 -19 32 -30 36 -12 3 -31 17 -42 29 l-21 23 3 -39 c3 -29 0 -39 -11 -39 -25
0 -39 27 -32 60 5 22 3 30 -6 28 -7 -2 -20 12 -29 30 -20 41 -40 55 -57 40
-17 -14 -45 -2 -101 46 -58 48 -99 49 -54 0 24 -25 33 -52 22 -59 -5 -3 -15 3
-22 15 -7 11 -16 20 -20 20 -6 0 -2 -41 7 -67 9 -25 -10 -12 -29 20 -11 17
-19 46 -18 62 1 17 -1 24 -4 18 -10 -22 -37 -15 -31 7 6 23 3 24 -23 10 -26
-14 -129 28 -122 49 3 8 0 11 -7 7 -6 -4 -11 -1 -11 7 0 12 -7 11 -37 -4 -45
-23 -67 -24 -60 -5 4 11 1 13 -10 9 -12 -5 -14 -1 -8 18 4 16 3 20 -3 11 -7
-10 -22 -12 -54 -7 -40 6 -45 10 -40 28 3 13 1 18 -6 14 -5 -4 -12 -2 -14 4
-3 8 -14 6 -37 -6 -24 -12 -36 -14 -44 -6 -8 8 -8 11 0 11 12 0 36 60 28 68
-3 3 -15 0 -28 -6 -12 -6 -34 -16 -48 -21 -25 -9 -27 -7 -33 21 -5 27 -8 29
-22 17 -15 -12 -16 -11 -10 7 13 41 -87 56 -199 30 -138 -32 -178 -27 -226 31
l-24 29 -48 -28 c-26 -15 -49 -28 -51 -28 -2 0 -9 23 -16 50 -10 41 -14 48
-24 37 -12 -15 -80 -30 -90 -20 -3 4 1 17 9 29 14 22 14 24 -17 40 -34 17 -98
15 -193 -6 -27 -6 -75 -12 -105 -12 l-55 -2 123 -40 c67 -22 122 -45 122 -50
0 -5 -29 -6 -72 -1 -112 11 -121 12 -145 3 -31 -10 -29 -2 3 15 22 12 23 15
10 26 -25 21 -71 15 -128 -17 -49 -29 -56 -30 -75 -17 -26 18 -36 8 -54 -55
-12 -43 -34 -79 -43 -69 -2 2 -6 21 -9 42 -3 21 -7 40 -9 42 -7 7 -48 -7 -48
-17 0 -5 5 -6 10 -3 6 3 10 2 10 -4 0 -5 3 -17 7 -27 5 -14 3 -16 -11 -11 -9
4 -15 3 -11 -3 3 -5 -14 -27 -37 -49 -30 -29 -44 -37 -50 -28 -4 6 -8 8 -8 3
0 -5 -14 5 -30 23 -25 26 -29 35 -20 51 6 11 16 17 25 14 11 -5 13 -2 9 10 -9
23 -59 18 -59 -6 0 -10 -6 -23 -13 -30 -9 -9 -12 -9 -12 0 0 25 -20 10 -35
-25 -13 -30 -18 -35 -25 -23 -9 14 -14 7 -11 -15 1 -5 -6 -1 -14 9 -15 20 -15
20 -15 -1 0 -11 -9 -32 -20 -46 -11 -14 -20 -33 -20 -42 0 -9 -4 -14 -9 -11
-4 3 -6 17 -3 31 5 30 -1 31 -39 4 -16 -11 -49 -23 -72 -25 -23 -3 -48 -7 -55
-9 -9 -3 -10 3 -6 20 6 26 -10 36 -19 13 -4 -10 -7 -10 -14 -1 -5 7 -21 11
-37 9 -51 -5 -91 8 -88 29 2 11 11 25 20 31 12 9 14 16 6 24 -8 8 -25 8 -62 0
-62 -14 -108 -10 -104 8 2 10 -4 11 -19 7 -18 -6 -20 -4 -14 14 14 47 -119 69
-181 30 l-34 -21 0 29 c0 16 6 35 13 42 10 11 8 11 -11 1 -13 -6 -55 -13 -93
-14 -60 -3 -69 -1 -75 16 -4 13 -11 17 -25 13 -14 -5 -17 -3 -13 9 4 12 0 16
-16 16 -16 0 -20 4 -16 16 4 11 2 15 -8 11 -11 -4 -13 -1 -9 10 4 10 2 14 -4
10 -6 -4 -26 0 -44 8 -19 8 -26 14 -16 15 24 0 21 14 -5 29 -13 7 -31 27 -40
46 -14 28 -15 34 -2 39 8 3 14 11 14 17 0 7 -3 9 -7 6 -8 -9 -43 48 -43 69 0
11 6 15 20 11 32 -8 32 9 -1 41 -17 17 -28 35 -24 41 3 6 0 11 -7 11 -10 1 -9
4 2 13 9 7 15 18 14 25 -1 6 -2 17 -3 22 0 6 -15 19 -32 29 -29 18 -30 19 -10
26 20 6 20 6 1 27 -10 11 -22 34 -25 50 -4 16 -13 32 -21 35 -8 3 -11 9 -8 14
3 5 -2 12 -10 15 -21 8 -20 22 1 26 9 2 17 12 19 23 1 11 5 31 8 44 3 14 -4
42 -20 73 -14 27 -26 67 -26 88 0 33 -4 39 -27 44 -15 3 -35 20 -49 42 -26 39
-22 57 6 31 11 -10 26 -14 40 -10 28 7 24 25 -9 34 -20 6 -21 7 -4 8 18 1 18
3 3 11 -14 8 -16 23 -14 73 2 34 6 72 10 84 6 17 4 22 -7 17 -8 -3 -21 6 -31
20 -21 33 -20 43 6 49 19 5 20 8 7 23 -11 14 -11 18 -1 22 9 3 11 15 6 39 -5
26 -4 34 5 29 6 -4 8 -12 5 -18 -5 -7 -2 -8 5 -4 7 5 10 14 7 22 -3 8 0 14 6
14 7 0 9 -14 5 -40 -3 -27 -2 -38 6 -33 6 4 8 -2 5 -15 -4 -13 -2 -20 3 -16
18 11 94 -50 84 -66 -3 -5 11 -2 30 6 34 14 37 14 42 -4 3 -14 11 -18 29 -14
17 3 24 0 24 -12 0 -20 16 -21 24 -1 11 30 25 15 14 -16 -12 -36 -4 -50 12
-20 12 24 30 28 30 7 0 -7 7 -19 15 -26 11 -10 25 -6 69 19 50 29 56 30 70 15
9 -8 16 -20 16 -26 0 -7 12 -1 26 13 l26 24 -4 -25 c-2 -20 1 -24 16 -22 14 3
17 -1 13 -12 -12 -31 2 -45 41 -40 20 3 37 6 39 8 1 1 -6 19 -16 39 -14 27
-15 37 -6 37 18 0 37 -26 33 -47 -2 -12 3 -18 15 -17 9 1 17 -4 17 -12 0 -21
9 -17 37 16 33 40 45 38 28 -4 -13 -31 -11 -46 6 -46 4 0 6 8 5 18 -2 11 9 23
33 34 41 19 47 17 53 -17 5 -25 -13 -51 -25 -38 -4 3 -7 -1 -7 -10 0 -22 19
-22 37 1 8 9 12 11 8 5 -7 -15 11 -18 20 -3 4 6 11 8 16 5 5 -4 9 -1 9 5 0 6
4 9 8 6 5 -3 24 9 42 27 25 24 30 27 21 10 -9 -19 -9 -23 2 -23 7 0 18 5 25
12 9 9 12 9 12 -1 0 -7 5 -9 13 -4 22 13 39 12 33 -3 -3 -8 -1 -15 4 -15 34
-5 52 -7 65 -8 14 -1 13 -4 -1 -26 -21 -32 -14 -39 19 -24 31 14 59 6 51 -16
-9 -23 25 -31 58 -12 29 17 38 11 16 -11 -10 -10 -8 -12 11 -9 13 2 42 1 63
-3 21 -4 41 -3 44 1 11 18 25 9 15 -9 -12 -23 27 -76 58 -78 12 -1 32 -2 45
-3 14 0 32 -8 41 -17 15 -15 18 -15 39 5 12 11 37 23 54 25 34 4 44 -10 15
-21 -23 -8 -33 -23 -33 -48 0 -18 2 -18 21 5 16 19 19 20 15 6 -5 -16 -4 -17
9 -6 12 10 21 6 50 -21 19 -18 35 -40 35 -48 0 -12 3 -11 18 2 9 9 30 18 46
21 24 4 27 2 23 -14 -3 -11 -1 -22 3 -25 12 -7 60 16 60 29 0 6 4 17 9 25 8
12 13 12 24 3 12 -10 16 -9 20 2 4 10 1 13 -9 9 -7 -3 -14 -1 -14 4 0 5 -9 9
-20 9 -11 0 -20 -6 -20 -13 0 -16 -16 -17 -25 -2 -4 6 2 21 14 33 43 46 15 64
-32 20 -15 -14 -34 -23 -41 -21 -8 3 -13 -1 -12 -11 0 -9 -7 -18 -16 -20 -10
-2 -18 1 -18 6 0 19 36 53 58 55 13 1 30 9 38 18 14 16 10 17 -50 16 -66 -1
-104 15 -88 37 10 14 9 27 -2 45 -6 10 -3 20 12 32 33 26 27 30 -19 14 -23 -8
-50 -15 -61 -15 -18 0 -19 2 -7 17 11 13 5 12 -22 -5 -50 -30 -66 -29 -45 3 9
14 13 25 8 25 -5 0 -7 13 -4 30 3 20 -1 32 -11 36 -18 6 -77 -22 -77 -37 0 -6
-4 -7 -10 -4 -17 11 -11 24 31 70 39 42 69 57 69 35 0 -5 5 -10 10 -10 16 0
12 22 -7 36 -28 21 -62 17 -72 -8 -5 -13 -7 -26 -5 -30 8 -13 -96 -20 -111 -8
-21 17 -19 44 5 65 17 16 18 20 6 27 -7 4 -17 20 -21 35 -9 37 -24 44 -57 27
-24 -13 -28 -13 -28 0 0 8 6 17 13 19 8 4 7 6 -4 6 -8 1 -20 -4 -26 -10 -9 -9
-16 -7 -28 5 -13 13 -20 14 -31 5 -17 -14 -18 -5 -3 23 6 11 13 34 16 51 l5
29 -29 -20 c-34 -24 -76 -70 -91 -97 -8 -15 -9 -5 -7 42 3 49 1 61 -10 57 -10
-4 -12 2 -5 30 4 21 4 34 -1 30 -5 -3 -9 -12 -9 -20 0 -8 -5 -14 -10 -14 -6 0
-10 -6 -9 -12 3 -15 -27 -69 -57 -106 -18 -22 -22 -23 -43 -11 -20 12 -24 12
-37 -6 -15 -19 -15 -18 -8 10 4 17 20 43 35 59 16 15 29 33 29 38 0 5 6 8 12
6 7 -3 20 4 28 15 15 18 15 21 -8 44 l-24 24 -35 -27 c-19 -14 -42 -42 -51
-61 -16 -34 -17 -34 -23 -12 -10 36 -10 71 0 65 5 -4 21 8 35 25 21 25 24 34
15 45 -10 12 -13 12 -24 -2 -10 -15 -14 -14 -40 12 -26 26 -28 27 -41 9 -7
-10 -10 -23 -7 -28 5 -8 8 -7 11 1 2 7 7 12 11 12 5 0 0 -24 -9 -52 -15 -46
-21 -53 -41 -51 -13 2 -34 3 -46 4 -19 1 -21 4 -12 21 20 37 -1 31 -46 -14
-25 -25 -45 -41 -44 -34 1 6 -2 20 -6 30 -8 19 -9 19 -16 0 -6 -14 -8 -11 -8
16 -1 26 -4 31 -11 20 -8 -12 -10 -9 -10 11 0 18 -8 29 -25 37 -14 7 -28 19
-31 27 -7 18 -25 20 -22 3 2 -7 -8 -14 -21 -16 -16 -3 -21 0 -16 9 5 7 4 10
-1 6 -5 -3 -9 -20 -8 -39 0 -21 -6 -40 -19 -52 -20 -19 -20 -19 -13 5 16 50
18 69 11 86 -6 16 -8 16 -26 -6 -18 -22 -18 -26 -5 -33 9 -5 16 -14 16 -20 0
-19 -38 22 -44 47 -3 13 -15 27 -26 30 -11 3 -23 17 -26 31 -8 33 -19 30 -32
-8 -7 -18 -10 -23 -8 -10 2 12 0 22 -5 22 -10 0 -49 -41 -49 -52 0 -4 -7 -8
-16 -8 -10 0 -14 5 -10 16 3 9 2 12 -5 8 -6 -3 -8 -16 -5 -28 5 -19 -8 -57
-16 -46 -2 3 -13 19 -25 36 -16 23 -19 34 -10 43 6 6 8 14 4 18 -4 4 -13 -8
-19 -25 -17 -45 -30 -40 -14 5 14 40 58 62 83 41 10 -8 13 -6 14 8 1 11 1 22
0 27 -1 4 10 12 23 17 13 5 27 14 31 20 5 8 11 8 21 -1 11 -9 14 -7 14 15 l0
27 25 -28 25 -28 -10 28 c-9 26 -8 27 22 25 31 -3 32 -1 39 44 9 62 16 71 46
63 23 -5 25 -4 21 19 -6 30 -1 32 24 9 17 -15 18 -15 18 3 0 17 3 16 20 -6
l20 -25 24 30 24 30 -26 15 c-15 8 -30 14 -34 15 -5 0 -7 5 -6 10 2 15 40 5
55 -13 10 -14 14 -15 22 -3 5 8 14 10 21 6 10 -6 12 0 7 28 -7 46 7 56 23 17
7 -17 16 -30 21 -30 12 0 11 14 0 25 -6 6 -4 24 7 47 l17 37 23 -19 c13 -11
22 -27 20 -37 -3 -18 2 -23 23 -23 8 0 8 5 -1 15 -9 10 -9 15 -1 15 6 0 11 9
11 20 0 11 7 23 15 26 10 4 13 13 10 25 -4 13 -1 19 9 19 9 0 16 5 16 10 0 23
48 59 69 53 14 -4 26 1 35 12 15 21 36 12 36 -16 0 -28 13 -24 33 11 16 27 47
33 47 9 0 -23 32 -6 45 24 8 18 14 25 15 15 0 -18 20 -26 20 -9 0 5 16 16 35
25 19 9 41 26 50 39 12 17 15 18 15 5 0 -17 31 -40 58 -44 7 -1 30 9 50 22 22
15 46 24 59 21 13 -2 23 -1 24 2 4 39 13 60 33 78 27 25 40 20 25 -9 -6 -11
-8 -31 -4 -45 5 -20 8 -23 21 -13 12 10 12 16 2 28 -9 11 -9 14 -1 9 6 -4 14
-3 18 2 6 10 70 7 108 -5 15 -5 19 -3 14 9 -6 16 21 47 42 47 8 0 11 -6 7 -15
-3 -8 0 -15 7 -15 18 0 47 53 38 69 -4 7 -6 24 -3 38 5 25 5 26 -15 7 -12 -12
-15 -22 -9 -26 15 -10 0 -22 -19 -15 -9 4 -15 17 -14 34 5 80 -13 70 -40 -23
-20 -67 -24 -74 -35 -58 -16 21 -10 47 15 70 20 18 26 54 10 54 -5 0 -11 -4
-13 -8 -5 -13 -74 -62 -87 -62 -8 0 -9 5 -2 18 5 10 6 24 1 31 -5 10 -10 4
-15 -18 -7 -33 -20 -34 -20 -3 0 10 -9 18 -22 20 -23 3 -31 26 -13 37 12 8 13
25 1 25 -4 0 -20 -18 -35 -40 -14 -22 -33 -40 -41 -40 -9 0 -21 -11 -27 -25
-6 -14 -15 -25 -20 -25 -11 0 -10 43 2 74 10 26 3 92 -9 81 -7 -8 -8 -13 -10
-67 -2 -39 -3 -41 -13 -20 -7 13 -20 22 -34 22 -18 0 -26 -8 -35 -40 -13 -41
-28 -53 -30 -22 -5 83 11 135 38 125 10 -4 14 -2 11 7 -6 20 -49 19 -69 -1
-19 -19 -16 -47 5 -61 6 -4 8 -8 6 -10 -3 -2 -22 -18 -42 -37 -34 -31 -40 -33
-64 -22 -23 10 -25 15 -19 48 5 31 4 35 -10 29 -24 -9 -38 3 -24 20 6 8 9 17
6 20 -3 3 -11 -4 -17 -16 l-11 -21 -18 22 c-14 17 -20 19 -26 9 -5 -7 -4 -11
1 -7 14 8 33 -39 23 -55 -8 -11 -11 -11 -18 1 -5 8 -7 21 -4 30 3 10 -4 7 -16
-8 -19 -21 -26 -20 -22 2 0 4 -3 7 -9 7 -5 0 -10 -10 -10 -21 0 -17 -5 -20
-21 -16 -12 3 -22 0 -26 -9 -7 -19 -23 -18 -23 1 0 9 -7 30 -16 47 -23 45 -36
23 -37 -66 -1 -42 -3 -76 -4 -76 -2 0 -14 18 -28 40 -16 26 -32 40 -43 38 -11
-2 -16 3 -15 16 1 17 0 17 -15 3 -12 -13 -13 -19 -3 -31 7 -8 10 -19 7 -24 -3
-5 1 -29 9 -54 15 -50 11 -62 -22 -72 -14 -5 -23 -16 -24 -29 0 -21 -1 -21
-11 3 -13 32 -18 131 -6 123 5 -3 8 8 6 23 -2 23 -9 30 -35 35 -18 4 -33 4
-34 0 0 -3 -3 -15 -6 -26 -9 -36 -5 -105 7 -120 9 -11 9 -15 1 -15 -6 0 -11 3
-11 8 0 4 -10 12 -22 17 -20 9 -23 18 -23 65 0 45 -3 55 -19 58 -12 3 -17 -1
-14 -9 8 -23 -14 -37 -44 -29 -17 6 -28 4 -31 -3 -6 -19 3 -37 19 -37 9 0 12
5 9 10 -3 6 -4 10 0 10 6 0 45 -86 45 -100 0 -4 -13 -13 -30 -20 -16 -7 -30
-16 -30 -21 0 -5 -5 -9 -11 -9 -5 0 -8 4 -5 9 3 5 -1 15 -10 22 -14 12 -16 7
-12 -49 1 -34 0 -62 -4 -62 -5 0 -8 5 -8 12 0 6 -3 8 -7 5 -3 -4 -13 -1 -21 6
-13 10 -14 8 -8 -13 l7 -25 -21 25 c-12 14 -19 19 -15 13 7 -14 -7 -18 -19 -5
-10 9 -116 10 -116 0 0 -3 5 -8 11 -10 5 -2 7 -11 3 -21 -4 -12 -12 -16 -23
-12 -9 3 -3 -8 13 -24 17 -17 30 -40 31 -51 2 -30 -8 -24 -30 18 -25 47 -51
50 -49 5 2 -30 0 -31 -22 -21 -17 8 -27 8 -37 0 -14 -12 -35 -11 -57 3 -16 10
-19 11 -47 15 -12 1 -6 7 17 18 l35 16 -27 4 c-28 3 -35 12 -21 26 13 12 13
44 0 54 -7 6 -35 19 -62 29 -47 18 -50 21 -50 53 0 33 -2 35 -30 32 l-30 -4
30 33 c17 18 23 28 14 21 -13 -10 -19 -9 -28 2 -9 11 -7 15 9 19 29 7 25 25
-10 45 -16 9 -30 20 -30 25 0 4 -4 7 -9 7 -6 0 -13 -21 -17 -46 -6 -45 -18
-49 -26 -9 -2 11 3 26 12 33 13 11 13 14 -4 26 -10 8 -15 19 -11 25 8 13 -1
14 -42 2 -41 -12 -55 4 -19 21 29 12 34 33 12 41 -11 4 -13 1 -9 -10 5 -12 2
-15 -10 -10 -9 3 -19 2 -22 -3 -4 -6 -15 -6 -28 2 -12 6 -24 11 -27 10 -5 -1
-2 23 5 46 2 6 14 12 25 12 11 0 20 7 20 15 0 18 -21 20 -39 3 -11 -11 -12
-10 -6 1 6 11 2 13 -19 7 -21 -5 -26 -4 -20 6 5 8 1 8 -11 -2 -17 -14 -18 -13
-11 4 6 18 5 19 -11 5 -32 -25 -63 -40 -63 -29 0 5 5 10 10 10 6 0 10 5 10 11
0 7 -9 9 -21 6 -37 -10 -98 21 -71 36 4 2 1 2 -5 1 -7 -2 -13 1 -13 7 0 6 -6
9 -12 6 -7 -2 -21 0 -31 5 -18 9 -18 11 5 35 l23 25 -47 -5 c-27 -3 -46 -1
-42 4 3 5 1 9 -5 9 -6 0 -8 7 -5 15 10 24 -43 31 -68 9 -20 -19 -21 -19 -14 1
6 20 2 21 -51 20 -32 -1 -66 -5 -76 -9 -13 -6 -16 -5 -11 8 7 18 -41 67 -65
65 -9 -1 -34 -5 -56 -11z m17 -110 c-5 -21 -4 -22 11 -9 10 8 17 9 17 3 0 -6
-5 -14 -10 -17 -8 -5 -7 -11 1 -21 18 -21 2 -17 -21 6 -16 16 -18 25 -10 40
14 26 19 25 12 -2z m218 -18 c0 -5 -4 -10 -10 -10 -5 0 -10 5 -10 10 0 6 5 10
10 10 6 0 10 -4 10 -10z m130 -55 c0 -8 -4 -15 -10 -15 -5 0 -7 7 -4 15 4 8 8
15 10 15 2 0 4 -7 4 -15z m-180 -194 c-5 -11 -15 -23 -22 -27 -6 -4 -9 -3 -6
2 3 5 8 17 11 27 4 9 11 17 17 17 8 0 8 -6 0 -19z m2230 -89 c0 -4 -5 -14 -10
-22 -8 -13 -10 -12 -10 4 0 20 0 20 -15 0 -15 -18 -15 -18 -9 9 4 17 2 27 -5
27 -6 0 -11 4 -11 9 0 5 14 3 30 -5 17 -9 30 -19 30 -22z m-203 -98 c-3 -3
-12 -4 -19 -1 -8 3 -5 6 6 6 11 1 17 -2 13 -5z m-1317 -34 c-8 -5 -17 -7 -19
-4 -3 3 1 9 9 14 8 5 17 7 19 4 3 -3 -1 -9 -9 -14z m1180 -23 c0 -5 -4 -5 -10
-2 -5 3 -10 14 -10 23 0 15 2 15 10 2 5 -8 10 -19 10 -23z m-1195 -7 c3 -5 -1
-10 -10 -10 -9 0 -13 5 -10 10 3 6 8 10 10 10 2 0 7 -4 10 -10z m1033 -105
c-3 -3 -9 2 -12 12 -6 14 -5 15 5 6 7 -7 10 -15 7 -18z m-653 -65 c-3 -5 -10
-10 -16 -10 -5 0 -9 5 -9 10 0 6 7 10 16 10 8 0 12 -4 9 -10z m-155 -31 c16
-29 9 -29 -19 -2 -19 18 -21 23 -8 23 9 0 21 -9 27 -21z m-310 -8 c0 -13 -30
-22 -43 -14 -7 4 -2 10 13 14 14 4 26 7 28 8 1 1 2 -3 2 -8z m463 -31 c3 -14
1 -20 -6 -17 -7 2 -14 14 -15 26 -4 28 13 20 21 -9z m-1316 -12 c-3 -7 -5 -2
-5 12 0 14 2 19 5 13 2 -7 2 -19 0 -25z m1150 -20 c-3 -8 -6 -5 -6 6 -1 11 2
17 5 13 3 -3 4 -12 1 -19z m-1270 6 c-3 -3 -12 -4 -19 -1 -8 3 -5 6 6 6 11 1
17 -2 13 -5z m723 -23 c0 -6 -4 -13 -10 -16 -5 -3 -10 1 -10 9 0 9 5 16 10 16
6 0 10 -4 10 -9z m590 -19 c0 -15 -2 -15 -10 -2 -13 20 -13 33 0 25 6 -3 10
-14 10 -23z m390 -8 c0 -8 -4 -12 -10 -9 -5 3 -10 13 -10 21 0 8 5 12 10 9 6
-3 10 -13 10 -21z m-450 11 c0 -7 -30 -13 -34 -7 -3 4 4 9 15 9 10 1 19 0 19
-2z m-520 -19 c0 -2 -7 -9 -15 -16 -13 -11 -14 -10 -9 4 5 14 24 23 24 12z
m240 -6 c0 -5 -4 -10 -9 -10 -6 0 -13 5 -16 10 -3 6 1 10 9 10 9 0 16 -4 16
-10z m320 -10 c0 -5 -2 -10 -4 -10 -3 0 -8 5 -11 10 -3 6 -1 10 4 10 6 0 11
-4 11 -10z m-1454 -15 c-3 -8 3 -22 12 -32 16 -16 16 -16 -1 -10 -10 4 -25 7
-33 7 -8 0 -14 9 -13 23 0 20 1 21 8 3 7 -19 8 -19 13 2 4 12 9 22 13 22 4 0
5 -7 1 -15z m716 -140 c-3 -20 -1 -24 12 -19 14 5 14 3 -1 -26 l-15 -32 -15
30 c-13 27 -13 32 3 51 23 26 22 26 16 -4z m-75 -18 c8 0 9 -6 2 -19 -7 -12
-6 -18 1 -18 6 0 8 -5 5 -10 -4 -6 -12 -8 -18 -4 -7 3 2 -6 18 -20 17 -14 33
-26 38 -26 4 0 7 -4 7 -9 0 -5 -11 -8 -24 -7 -13 0 -22 6 -19 12 7 18 -16 27
-32 14 -12 -10 -15 -10 -15 0 0 8 -3 10 -7 6 -4 -4 -6 -24 -4 -44 2 -28 0 -34
-9 -26 -33 32 -8 174 28 159 9 -4 22 -8 29 -8z m973 -32 c14 -19 14 -19 -2 -6
-10 7 -18 18 -18 24 0 6 1 8 3 6 1 -2 9 -13 17 -24z m-325 -80 c4 -72 4 -72
20 -50 14 17 15 15 13 -33 -2 -34 -6 -48 -12 -42 -16 16 -26 12 -36 -12 -9
-20 -10 -19 -7 11 2 18 1 51 -3 72 -4 23 -3 42 2 45 6 4 6 10 0 16 -5 5 -7 19
-4 30 5 19 5 20 15 2 6 -11 11 -28 12 -39z m385 -59 c0 -17 -14 -29 -23 -20
-8 8 3 34 14 34 5 0 9 -6 9 -14z m119 -68 c-12 -21 -13 -21 -17 -4 -2 10 2 22
9 27 20 12 22 4 8 -23z m-809 -40 c0 -16 -3 -19 -11 -11 -6 6 -8 16 -5 22 11
17 16 13 16 -11z m348 -15 c18 -18 45 -94 36 -103 -3 -3 -12 4 -20 14 -8 11
-14 14 -14 8 0 -7 -8 -12 -18 -12 -16 0 -18 7 -16 48 3 73 4 74 32 45z m-258
-3 c0 -5 -4 -10 -10 -10 -5 0 -10 5 -10 10 0 6 5 10 10 10 6 0 10 -4 10 -10z
m117 -52 c-3 -8 -6 -5 -6 6 -1 11 2 17 5 13 3 -3 4 -12 1 -19z m35 -3 c3 -14
1 -28 -3 -31 -5 -3 -9 9 -9 25 0 38 6 40 12 6z m1544 -70 c-7 -18 -26 -20 -26
-2 0 18 24 41 28 27 2 -6 1 -17 -2 -25z m-2385 8 c13 -16 12 -17 -3 -4 -10 7
-18 15 -18 17 0 8 8 3 21 -13z m1172 -13 c-3 -11 -10 -23 -16 -27 -5 -3 -8 -2
-5 3 3 5 8 17 11 27 9 24 16 22 10 -3z m-233 -10 c0 -11 -2 -20 -4 -20 -2 0
-6 9 -9 20 -3 11 -1 20 4 20 5 0 9 -9 9 -20z m580 -10 c0 -5 -5 -10 -11 -10
-5 0 -7 5 -4 10 3 6 8 10 11 10 2 0 4 -4 4 -10z m16 -46 c-4 -9 -9 -15 -11
-12 -3 3 -3 13 1 22 4 9 9 15 11 12 3 -3 3 -13 -1 -22z m-586 -40 c15 -3 40
-17 40 -23 0 -3 -9 -12 -19 -18 -16 -10 -24 -9 -41 5 -22 18 -19 59 4 45 6 -4
13 -8 16 -9z m1260 -83 c0 -6 -4 -13 -10 -16 -5 -3 -10 1 -10 9 0 9 5 16 10
16 6 0 10 -4 10 -9z m-2336 -17 c8 -22 8 -24 -8 -24 -7 0 -20 8 -27 18 -13 16
-13 16 5 2 18 -14 19 -13 13 3 -3 9 -2 17 2 17 5 0 12 -7 15 -16z m250 0 c20
-19 20 -31 1 -31 -8 0 -13 2 -10 5 2 3 0 13 -6 23 -12 23 -6 24 15 3z m2221
-34 c3 -5 1 -10 -4 -10 -6 0 -11 5 -11 10 0 6 2 10 4 10 3 0 8 -4 11 -10z
m221 -31 c12 -14 11 -18 -6 -34 -22 -20 -28 -8 -7 14 10 11 7 12 -13 6 -20 -6
-23 -5 -12 6 6 7 12 22 13 34 0 14 2 16 6 5 3 -8 12 -22 19 -31z m-1562 -258
c19 -7 18 -8 -4 -14 -23 -6 -23 -7 -5 -27 10 -11 13 -20 7 -20 -6 0 -14 5 -18
12 -5 7 -11 5 -21 -8 -13 -17 -14 -17 -7 11 4 16 7 35 7 42 0 14 12 15 41 4z
m86 -296 c0 -8 -2 -15 -4 -15 -2 0 -6 7 -10 15 -3 8 -1 15 4 15 6 0 10 -7 10
-15z m60 -125 c0 -5 -5 -10 -11 -10 -5 0 -7 5 -4 10 3 6 8 10 11 10 2 0 4 -4
4 -10z m5 -60 c-3 -5 -14 -10 -23 -10 -15 0 -15 2 -2 10 20 13 33 13 25 0z
m2409 -385 c8 -22 -23 -49 -40 -34 -12 10 -12 15 2 30 21 23 30 24 38 4z m326
11 c0 -2 -9 -6 -20 -9 -11 -3 -18 -1 -14 4 5 9 34 13 34 5z m-2370 -36 c0 -5
-4 -10 -10 -10 -5 0 -10 5 -10 10 0 6 5 10 10 10 6 0 10 -4 10 -10z m2095 -39
c3 -6 -3 -15 -14 -21 -21 -11 -37 2 -26 20 8 13 32 13 40 1z m-2035 -21 c9
-18 8 -18 -20 -9 -39 14 -48 29 -16 29 15 0 30 -8 36 -20z m-595 -68 c3 -4 13
1 20 12 15 19 35 14 35 -10 0 -8 9 -14 19 -14 10 0 21 -7 25 -15 5 -13 1 -13
-27 -2 -20 8 -47 11 -72 6 -22 -4 -43 -5 -47 -3 -6 4 8 70 20 89 3 5 9 -5 13
-23 4 -18 10 -36 14 -40z m855 26 c0 -13 -23 -5 -28 10 -2 7 2 10 12 6 9 -3
16 -11 16 -16z m1740 -5 c-1 -10 -26 -43 -33 -43 -3 0 0 11 6 25 11 23 27 34
27 18z m-1656 -29 c9 -24 7 -31 -9 -38 -11 -4 -15 2 -15 24 0 32 14 40 24 14z
m2491 -53 c-4 -17 -11 -31 -17 -31 -6 0 -7 8 -3 18 4 9 10 25 12 35 9 29 15
11 8 -22z m-2833 -23 c-7 -7 -12 -8 -12 -2 0 6 3 14 7 17 3 4 9 5 12 2 2 -3
-1 -11 -7 -17z m2798 -39 c0 -5 -4 -9 -10 -9 -5 0 -10 7 -10 16 0 8 5 12 10 9
6 -3 10 -10 10 -16z m-460 -130 c0 -11 -8 -22 -17 -25 -10 -3 -26 -10 -35 -15
-32 -17 -22 34 10 52 31 18 42 16 42 -12z m-2262 -33 c5 -24 -10 -38 -31 -30
-17 6 -23 35 -10 48 12 12 38 1 41 -18z m2107 2 c14 -6 24 -16 22 -22 -6 -18
-29 -12 -44 12 -18 25 -14 27 22 10z m-2210 -38 c3 -5 -1 -10 -9 -10 -9 0 -16
5 -16 10 0 6 4 10 9 10 6 0 13 -4 16 -10z m178 -20 c-5 -20 -24 -21 -68 -4
-19 8 -19 8 5 15 50 14 69 11 63 -11z m-226 -6 c-3 -3 -12 -4 -19 -1 -8 3 -5
6 6 6 11 1 17 -2 13 -5z m2693 -34 c15 -9 9 -22 -13 -26 -7 -1 -20 -5 -29 -9
-14 -5 -18 -2 -18 12 0 33 28 44 60 23z m416 -33 c4 -4 -2 -7 -14 -7 -11 0
-23 4 -26 8 -6 10 30 9 40 -1z m138 -8 c-8 -14 -24 -10 -24 6 0 9 6 12 15 9 8
-4 12 -10 9 -15z m-76 -46 c5 -9 7 -24 5 -34 -6 -23 -33 -26 -33 -4 0 18 -12
19 -27 4 -8 -8 -8 1 0 30 9 34 13 38 28 30 10 -5 22 -17 27 -26z m131 -30 c1
-30 -34 -31 -49 -3 -6 11 -8 20 -5 20 3 0 1 9 -4 19 -9 16 -8 18 8 14 10 -3
22 1 27 9 9 14 21 -17 23 -59z m40 19 c1 -7 -3 -10 -9 -7 -5 3 -10 18 -9 33 0
24 1 25 9 7 5 -11 9 -26 9 -33z m-342 -47 c-4 -8 -11 -15 -17 -15 -6 0 -6 7 2
20 14 22 24 19 15 -5z m-3067 -48 c0 -5 -4 -5 -10 -2 -5 3 -10 14 -10 23 0 15
2 15 10 2 5 -8 10 -19 10 -23z m90 -8 c0 -4 -6 -12 -14 -18 -10 -8 -16 -8 -25
2 -6 8 -9 16 -6 18 7 7 45 5 45 -2z m330 -99 c-8 -5 -22 -9 -30 -9 -10 0 -8 3
5 9 27 12 43 12 25 0z m-50 -4 c0 -3 -4 -8 -10 -11 -5 -3 -10 -1 -10 4 0 6 5
11 10 11 6 0 10 -2 10 -4z m-210 -71 c0 -17 -2 -18 -24 -9 -23 9 -20 24 4 24
11 0 20 -7 20 -15z m65 -175 c-3 -5 -12 -10 -18 -10 -7 0 -6 4 3 10 19 12 23
12 15 0z m71 -48 c-9 -26 -38 -38 -34 -14 3 17 30 44 36 37 2 -2 1 -12 -2 -23z
m39 -51 c6 -11 -33 -36 -42 -27 -7 7 16 36 28 36 4 0 10 -4 14 -9z m5 -36 c-7
-9 -15 -13 -19 -10 -3 3 1 10 9 15 21 14 24 12 10 -5z"/>
<path d="M4770 6770 c0 -5 5 -10 11 -10 5 0 7 5 4 10 -3 6 -8 10 -11 10 -2 0
-4 -4 -4 -10z"/>
<path d="M2050 6747 c0 -19 10 -27 26 -20 21 8 17 33 -6 33 -11 0 -20 -6 -20
-13z"/>
<path d="M2496 6721 c-3 -5 1 -11 9 -15 8 -3 15 -1 15 4 0 13 -18 22 -24 11z"/>
<path d="M2575 6680 c3 -5 8 -10 11 -10 2 0 4 5 4 10 0 6 -5 10 -11 10 -5 0
-7 -4 -4 -10z"/>
<path d="M4814 6678 c-3 -4 4 -8 15 -8 11 0 22 4 26 9 3 6 -4 9 -16 8 -11 -1
-23 -5 -25 -9z"/>
<path d="M4715 6660 c3 -5 8 -10 11 -10 2 0 4 5 4 10 0 6 -5 10 -11 10 -5 0
-7 -4 -4 -10z"/>
<path d="M5334 6619 c-3 -6 -2 -15 3 -20 5 -5 9 -1 10 11 2 22 -2 25 -13 9z"/>
<path d="M5392 6623 c-10 -4 -10 -8 -1 -19 8 -10 16 -11 30 -3 33 17 7 37 -29
22z"/>
<path d="M2896 6521 c-10 -11 -13 -22 -8 -25 6 -3 17 5 26 19 19 29 7 33 -18
6z"/>
<path d="M4240 6528 c0 -8 7 -23 15 -34 14 -19 14 -19 15 2 0 12 -7 27 -15 34
-12 10 -15 10 -15 -2z"/>
<path d="M3930 6370 c0 -5 7 -10 16 -10 8 0 12 5 9 10 -3 6 -10 10 -16 10 -5
0 -9 -4 -9 -10z"/>
<path d="M3065 6320 c-3 -5 1 -10 9 -10 9 0 16 5 16 10 0 6 -4 10 -9 10 -6 0
-13 -4 -16 -10z"/>
<path d="M6368 6313 c-79 -23 -148 -68 -160 -104 -4 -12 -7 -12 -21 0 -10 7
-17 19 -17 26 0 16 -231 -153 -280 -205 -60 -63 -81 -92 -97 -132 -13 -33 -20
-39 -42 -38 -41 3 -53 1 -46 -10 5 -8 -25 -47 -83 -109 -7 -7 -16 -26 -19 -42
-3 -16 -11 -29 -19 -29 -20 0 -47 -142 -47 -250 -1 -100 6 -182 28 -340 2 -14
4 -28 4 -32 1 -3 15 -9 31 -13 18 -4 41 -21 58 -43 15 -20 53 -62 86 -95 64
-64 66 -84 6 -50 l-38 22 -5 -32 c-5 -40 -2 -49 24 -65 14 -9 24 -10 33 -3 9
8 18 7 31 -3 16 -12 17 -16 6 -30 -7 -9 -12 -16 -10 -17 2 0 18 -2 34 -3 21
-2 47 -20 86 -58 65 -65 313 -233 329 -223 6 3 8 10 6 14 -3 4 30 6 72 4 78
-3 136 -19 127 -34 -7 -11 28 -29 58 -29 14 0 52 10 86 23 l60 23 -28 11 c-19
7 -29 17 -28 29 2 15 -6 19 -36 21 -30 2 -38 -1 -33 -12 10 -28 -27 -28 -106
1 -22 8 -23 23 -2 39 14 9 14 16 5 33 -6 12 -18 23 -26 23 -8 1 -21 2 -27 3
-7 1 -33 -8 -58 -21 -25 -13 -55 -23 -68 -23 -13 0 -20 -4 -17 -10 4 -6 -6
-11 -22 -11 -43 -2 -56 1 -75 18 -17 15 -17 17 0 30 9 8 12 12 5 9 -14 -7 -43
3 -43 15 0 14 91 10 135 -6 36 -13 41 -13 53 2 19 26 15 30 -32 37 -89 14
-239 80 -303 135 -31 26 -29 31 9 20 42 -12 43 -12 28 6 -6 8 -9 18 -6 23 8
13 -24 20 -54 12 -16 -5 -31 -2 -42 8 -22 19 -23 32 -2 32 11 0 14 5 9 18 -3
9 -7 22 -8 27 -1 6 -4 12 -8 15 -3 3 -16 23 -29 44 l-24 39 26 -6 c15 -4 33
-10 42 -13 27 -11 18 12 -16 39 -61 46 -88 76 -113 123 -26 49 -32 84 -15 84
6 0 10 -5 10 -12 0 -6 3 -8 7 -5 4 4 -3 20 -14 35 -56 76 -73 143 -41 164 12
7 47 -26 48 -45 0 -5 8 -20 19 -33 16 -21 20 -22 31 -8 9 10 16 12 24 4 16
-16 26 -12 26 10 0 13 -12 27 -31 38 -18 9 -43 27 -58 39 l-26 21 33 19 c31
17 67 75 78 124 3 13 5 57 4 96 0 67 2 74 25 89 15 10 30 13 35 8 10 -11 37
-104 34 -121 -1 -7 -2 -24 -3 -38 0 -13 -13 -35 -28 -49 -15 -14 -24 -29 -20
-33 13 -13 41 13 51 46 5 17 14 31 20 31 6 0 24 26 39 57 26 51 27 57 13 72
-14 13 -20 14 -37 3 -12 -8 -22 -12 -24 -10 -6 7 92 145 128 181 45 45 108 76
154 77 42 0 49 -14 23 -47 -24 -31 -10 -45 18 -20 22 20 68 31 76 19 3 -5 -7
-18 -22 -28 -48 -31 -166 -157 -225 -241 -31 -44 -57 -84 -57 -87 0 -3 -13
-28 -30 -56 -40 -69 -38 -110 11 -237 20 -48 20 -56 6 -110 -14 -58 -14 -58
13 -83 14 -14 35 -39 45 -57 10 -17 29 -37 42 -44 26 -14 33 -45 7 -35 -29 11
-35 -5 -13 -37 61 -89 149 -143 333 -206 66 -23 121 -41 124 -41 2 0 -45 32
-105 71 -108 72 -171 119 -157 119 4 0 58 -27 120 -60 71 -38 124 -60 145 -60
38 0 35 -9 -4 -12 -19 -2 -23 -5 -16 -15 21 -25 78 -35 166 -28 69 5 92 3 108
-9 17 -12 24 -12 60 6 22 11 67 42 100 68 33 26 75 55 93 64 l32 17 -6 -41
c-4 -22 -3 -40 2 -40 4 0 27 9 51 21 37 18 41 23 32 40 -5 11 -7 25 -3 31 5 8
2 9 -9 5 -10 -3 -17 -2 -17 2 0 5 7 11 15 15 8 3 15 1 15 -5 0 -6 9 -8 21 -4
20 7 21 5 16 -24 -4 -20 -3 -30 3 -26 6 3 10 21 10 40 0 26 13 50 60 109 33
41 67 91 76 111 12 30 18 35 37 30 16 -5 18 -4 8 3 -15 11 -7 32 12 32 7 0 23
14 36 30 32 41 55 40 46 -2 -4 -18 -16 -45 -26 -60 -12 -16 -15 -29 -10 -33
13 -7 56 57 76 114 18 51 18 54 5 46 -6 -4 -10 10 -10 34 0 32 3 39 15 35 11
-4 15 1 16 17 3 46 -1 79 -15 119 -11 33 -11 43 1 66 13 27 6 43 -20 44 -5 0
-6 8 -3 18 18 59 17 67 -6 77 -13 6 -31 27 -40 47 -16 34 -58 70 -58 51 0 -11
-20 20 -20 31 0 4 11 5 24 2 43 -11 18 33 -63 113 -45 43 -71 76 -63 78 19 7
14 22 -6 17 -10 -3 -34 9 -57 29 -22 18 -55 43 -73 56 -25 18 -30 26 -22 36
13 15 7 20 -37 30 -18 3 -33 12 -33 19 0 7 -57 31 -130 55 -71 23 -130 47
-130 52 0 13 41 28 60 22 8 -2 2 3 -14 12 -32 19 -94 22 -240 10 -77 -6 -97
-5 -91 4 4 8 -4 7 -24 -3 -30 -16 -31 -16 -31 4 0 19 -5 21 -51 18 -28 -2 -69
-8 -91 -15z m247 -53 c4 -6 -6 -10 -22 -10 -22 0 -25 2 -13 10 19 12 27 12 35
0z m183 -35 c1 -1 -4 -8 -12 -14 -12 -10 -19 -8 -35 8 -31 31 -25 44 12 25 17
-9 33 -18 35 -19z m-569 -68 c-2 -2 -24 -11 -49 -21 l-45 -16 24 20 c13 11 35
20 49 20 14 0 23 -2 21 -3z m-119 -17 c0 -5 -7 -10 -16 -10 -8 0 -12 5 -9 10
3 6 10 10 16 10 5 0 9 -4 9 -10z m201 -73 c-8 -8 -11 -7 -11 4 0 9 3 19 7 23
4 4 9 2 11 -4 3 -7 -1 -17 -7 -23z m816 -254 c-3 -3 -11 -2 -17 2 -9 6 -9 10
1 16 14 8 27 -7 16 -18z m-517 -173 c0 -5 -4 -10 -9 -10 -6 0 -13 5 -16 10 -3
6 1 10 9 10 9 0 16 -4 16 -10z m-895 -30 c-6 -30 13 -34 27 -6 6 14 15 26 20
26 13 0 9 -9 -21 -48 -16 -20 -35 -57 -42 -82 -18 -64 -25 -67 -48 -22 -26 51
-26 55 -1 42 29 -15 40 -5 40 38 0 47 10 83 21 77 4 -3 6 -14 4 -25z m457 -14
c-2 -19 -12 -42 -22 -51 -18 -16 -19 -16 -16 6 5 34 24 79 34 79 4 0 6 -15 4
-34z m393 -26 c19 0 19 -14 0 -30 -8 -7 -15 -9 -15 -6 0 4 -6 1 -14 -6 -8 -7
-10 -17 -6 -23 5 -5 5 -29 1 -52 -11 -56 8 -106 60 -159 50 -51 126 -86 190
-87 50 -2 56 -17 16 -39 -30 -15 -138 -19 -179 -5 -100 35 -174 128 -182 231
-4 44 -2 49 27 67 22 13 26 19 15 19 -24 0 -23 21 2 53 14 18 27 24 42 20 22
-4 23 -4 4 11 -11 9 -24 16 -29 16 -5 0 1 11 14 25 l24 24 8 -29 c4 -17 14
-30 22 -30z m141 38 c3 -13 21 -35 39 -50 30 -26 53 -78 34 -78 -5 0 -9 -4 -9
-9 0 -6 16 -7 35 -4 21 3 35 2 35 -5 0 -5 -9 -8 -20 -5 -24 6 -24 5 -4 -36 14
-29 14 -34 0 -56 -10 -15 -22 -22 -31 -19 -20 8 -19 24 1 24 10 0 14 7 12 22
-4 30 -28 36 -28 6 0 -12 -4 -29 -9 -37 -6 -10 -3 -20 12 -32 18 -14 20 -21
11 -36 -18 -29 -42 -27 -89 9 -40 31 -42 34 -27 51 19 21 27 81 9 70 -7 -4 -6
1 2 10 12 15 11 17 -3 17 -9 0 -21 -10 -26 -22 -5 -13 -9 -21 -10 -18 -7 24
-7 40 -1 40 4 0 8 7 8 15 0 8 -4 12 -9 9 -17 -11 -30 8 -16 25 7 9 1 4 -14
-11 -16 -16 -28 -23 -28 -18 0 6 -5 8 -11 4 -14 -8 -2 31 18 63 16 24 47 38
63 28 5 -3 10 -2 10 4 0 5 -5 13 -11 16 -7 5 -4 14 7 26 23 25 41 24 50 -3z
m163 -19 c12 -12 20 -23 18 -26 -3 -2 -17 7 -32 21 -16 15 -24 26 -18 26 5 0
19 -9 32 -21z m408 -7 c18 -12 34 -60 28 -90 -2 -15 -8 -48 -13 -74 -6 -32 -5
-57 4 -83 10 -31 10 -36 -3 -31 -8 3 -25 6 -37 6 -19 0 -22 5 -20 43 1 23 7
41 13 40 6 -2 9 13 6 39 -3 23 0 47 6 54 11 13 -4 54 -20 54 -4 0 -13 11 -19
25 -11 23 -10 25 16 25 15 0 32 -4 39 -8z m-1069 -42 c8 -22 8 -31 -1 -36 -7
-4 -9 -4 -5 1 4 4 0 13 -9 20 -10 7 -14 19 -10 29 9 23 14 20 25 -14z m-115
-76 c-6 -84 -13 -92 -33 -44 -10 24 -10 37 -1 56 15 33 37 25 34 -12z m510
-34 c-8 -17 -16 -30 -19 -30 -9 0 4 44 14 48 7 2 9 9 6 14 -4 6 -2 8 4 4 7 -4
6 -16 -5 -36z m364 -42 c-3 -8 -6 -5 -6 6 -1 11 2 17 5 13 3 -3 4 -12 1 -19z
m-300 -9 c1 -10 -3 -22 -9 -25 -7 -5 -9 -2 -5 8 3 9 1 20 -4 25 -6 6 -5 10 4
10 7 0 14 -8 14 -18z m211 -6 c4 -13 -37 -58 -45 -49 -3 3 -2 13 2 23 8 17 11
26 14 39 2 9 24 -1 29 -13z m-241 -6 c-5 -17 -37 -21 -37 -5 0 8 9 14 21 15
12 1 19 -3 16 -10z m-1047 -237 c0 -5 -2 -10 -4 -10 -3 0 -8 5 -11 10 -3 6 -1
10 4 10 6 0 11 -4 11 -10z m1084 -58 c2 -4 -5 -9 -17 -9 -17 -2 -19 0 -7 7 18
12 18 12 24 2z"/>
<path d="M6696 5455 c4 -8 11 -15 16 -15 6 0 5 6 -2 15 -7 8 -14 15 -16 15 -2
0 -1 -7 2 -15z"/>
<path d="M3720 6299 c0 -5 5 -7 10 -4 6 3 10 8 10 11 0 2 -4 4 -10 4 -5 0 -10
-5 -10 -11z"/>
<path d="M3108 6153 c7 -3 16 -2 19 1 4 3 -2 6 -13 5 -11 0 -14 -3 -6 -6z"/>
<path d="M2605 5909 c-4 -12 -2 -26 4 -32 8 -8 11 -2 11 21 0 37 -6 41 -15 11z"/>
<path d="M2010 5864 c0 -5 7 -19 15 -30 8 -10 15 -14 15 -8 0 5 -7 19 -15 30
-8 10 -15 14 -15 8z"/>
<path d="M2205 5860 c-3 -5 -2 -10 4 -10 5 0 13 5 16 10 3 6 2 10 -4 10 -5 0
-13 -4 -16 -10z"/>
<path d="M6077 5843 c-15 -14 -6 -31 18 -36 25 -4 25 -4 8 17 -10 11 -18 22
-19 24 0 1 -4 -1 -7 -5z"/>
<path d="M3750 5759 c0 -5 5 -7 10 -4 6 3 10 8 10 11 0 2 -4 4 -10 4 -5 0 -10
-5 -10 -11z"/>
<path d="M4057 5753 c-4 -3 -7 -11 -7 -17 0 -6 5 -5 12 2 6 6 9 14 7 17 -3 3
-9 2 -12 -2z"/>
<path d="M2631 5726 c-8 -10 -9 -16 -1 -21 5 -3 13 1 16 10 9 22 -1 29 -15 11z"/>
<path d="M1936 5722 c-3 -5 1 -9 9 -9 8 0 12 4 9 9 -3 4 -7 8 -9 8 -2 0 -6 -4
-9 -8z"/>
<path d="M1890 5716 c0 -2 7 -7 16 -10 8 -3 12 -2 9 4 -6 10 -25 14 -25 6z"/>
<path d="M1871 5677 c-9 -11 -8 -17 3 -26 11 -9 15 -8 20 5 9 23 -8 38 -23 21z"/>
<path d="M4245 5640 c-3 -5 1 -10 9 -10 9 0 16 5 16 10 0 6 -4 10 -9 10 -6 0
-13 -4 -16 -10z"/>
<path d="M6013 5625 c-9 -25 4 -29 17 -6 7 15 7 21 0 21 -6 0 -13 -7 -17 -15z"/>
<path d="M5891 5620 c-1 -8 -10 -26 -21 -40 -11 -14 -19 -36 -19 -50 1 -23 2
-22 16 10 8 19 19 38 25 41 5 4 8 17 5 30 -2 13 -5 17 -6 9z"/>
<path d="M4571 5538 c-10 -26 -3 -44 10 -31 14 14 19 53 8 53 -5 0 -13 -10
-18 -22z"/>
<path d="M4986 5455 c-11 -8 -17 -17 -14 -20 2 -3 13 4 23 15 21 23 18 25 -9
5z"/>
<path d="M5021 5447 c-13 -21 -12 -21 5 -5 10 10 16 20 13 22 -3 3 -11 -5 -18
-17z"/>
<path d="M2970 5450 c0 -5 5 -10 10 -10 6 0 10 5 10 10 0 6 -4 10 -10 10 -5 0
-10 -4 -10 -10z"/>
<path d="M5140 5399 c0 -5 5 -7 10 -4 6 3 10 8 10 11 0 2 -4 4 -10 4 -5 0 -10
-5 -10 -11z"/>
<path d="M2780 5383 c0 -5 7 -18 15 -29 12 -16 14 -16 15 -3 0 9 -7 22 -15 29
-8 7 -15 8 -15 3z"/>
<path d="M5037 5361 c-4 -17 -3 -21 5 -13 5 5 8 16 6 23 -3 8 -7 3 -11 -10z"/>
<path d="M5133 5293 c9 -9 20 -13 24 -9 4 4 1 11 -7 16 -25 16 -35 11 -17 -7z"/>
<path d="M3340 5286 c0 -2 8 -10 18 -17 15 -13 16 -12 3 4 -13 16 -21 21 -21
13z"/>
<path d="M5192 5253 c-32 -38 -39 -53 -24 -53 15 1 42 28 42 42 0 8 5 19 12
26 6 6 9 14 6 17 -2 3 -19 -12 -36 -32z"/>
<path d="M5242 5264 c-7 -8 -8 -14 -3 -14 10 0 25 19 20 25 -2 1 -10 -3 -17
-11z"/>
<path d="M5830 5260 c11 -20 30 -28 30 -12 0 11 -22 32 -32 32 -5 0 -4 -9 2
-20z"/>
<path d="M2570 5186 c0 -2 8 -10 18 -17 15 -13 16 -12 3 4 -13 16 -21 21 -21
13z"/>
<path d="M3410 5181 c0 -9 41 -23 48 -16 2 2 1 8 -3 14 -8 13 -45 15 -45 2z"/>
<path d="M2460 5131 c0 -6 12 -18 28 -28 15 -10 30 -22 34 -28 5 -6 8 -6 8 1
0 7 -16 24 -35 38 -19 15 -35 22 -35 17z"/>
<path d="M2525 5131 c-3 -5 -1 -12 4 -15 5 -3 11 1 15 9 6 16 -9 21 -19 6z"/>
<path d="M5315 5090 c-10 -11 -16 -22 -13 -25 3 -3 13 4 23 15 10 11 16 22 13
25 -3 3 -13 -4 -23 -15z"/>
<path d="M2354 5061 c4 -6 16 -16 28 -22 15 -8 18 -8 14 0 -4 6 -16 16 -28 22
-15 8 -18 8 -14 0z"/>
<path d="M5535 5030 c-3 -5 -1 -10 4 -10 6 0 11 5 11 10 0 6 -2 10 -4 10 -3 0
-8 -4 -11 -10z"/>
<path d="M5490 4996 c0 -2 8 -10 18 -17 15 -13 16 -12 3 4 -13 16 -21 21 -21
13z"/>
<path d="M3330 4971 c0 -5 7 -12 16 -15 14 -5 15 -4 4 9 -14 17 -20 19 -20 6z"/>
<path d="M5546 4906 c7 -19 28 -26 45 -15 12 8 12 10 -1 19 -23 15 -50 12 -44
-4z"/>
<path d="M2282 4883 c-10 -4 -10 -8 -1 -19 15 -18 29 -18 29 0 0 18 -11 25
-28 19z"/>
<path d="M3376 4823 c0 -16 4 -27 7 -25 4 1 7 4 7 7 0 3 0 14 0 25 0 11 -4 20
-8 20 -4 0 -7 -12 -6 -27z"/>
<path d="M3300 4744 c0 -8 5 -12 10 -9 6 4 8 11 5 16 -9 14 -15 11 -15 -7z"/>
<path d="M6164 4723 c10 -10 46 -11 46 -1 0 4 -12 8 -27 8 -14 0 -23 -3 -19
-7z"/>
<path d="M6122 4711 c-11 -6 -9 -9 5 -13 12 -3 20 0 20 8 0 16 -6 17 -25 5z"/>
<path d="M3386 4661 c-4 -5 3 -7 14 -4 23 6 26 13 6 13 -8 0 -17 -4 -20 -9z"/>
<path d="M6586 4590 c-15 -5 -16 -9 -7 -14 7 -5 18 -3 24 3 14 14 6 20 -17 11z"/>
<path d="M6168 4563 c7 -3 16 -2 19 1 4 3 -2 6 -13 5 -11 0 -14 -3 -6 -6z"/>
<path d="M6515 4541 c-2 -5 8 -11 23 -14 35 -7 38 -3 7 11 -13 6 -27 7 -30 3z"/>
<path d="M6905 4524 c-83 -20 -92 -34 -22 -34 61 0 107 16 107 37 0 16 -8 15
-85 -3z"/>
<path d="M6605 4520 c-3 -5 -2 -10 4 -10 5 0 13 5 16 10 3 6 2 10 -4 10 -5 0
-13 -4 -16 -10z"/>
<path d="M6659 4498 c-8 -7 -12 -12 -10 -11 2 1 12 -2 23 -8 24 -13 31 -8 22
15 -7 19 -15 20 -35 4z"/>
<path d="M6800 4460 c-8 -5 -11 -12 -7 -16 4 -4 13 -2 19 4 15 15 7 24 -12 12z"/>
<path d="M6826 4401 c-4 -5 3 -7 14 -4 23 6 26 13 6 13 -8 0 -17 -4 -20 -9z"/>
<path d="M3613 3703 c-24 -9 -13 -23 14 -18 16 2 30 -1 35 -8 6 -9 8 -9 8 1 0
6 0 15 0 19 1 9 -41 13 -57 6z"/>
<path d="M5710 3665 c0 -11 7 -15 23 -13 12 2 28 -4 35 -12 11 -13 11 -11 2 8
-6 12 -15 22 -20 22 -4 0 -15 3 -24 6 -11 4 -16 1 -16 -11z"/>
<path d="M3444 3609 c-1 -16 2 -29 7 -29 11 0 12 47 1 54 -4 2 -8 -9 -8 -25z"/>
<path d="M3766 3622 c-3 -6 -2 -13 4 -17 6 -4 7 -12 4 -18 -5 -9 -4 -9 6 0 8
7 9 16 2 28 -6 11 -12 14 -16 7z"/>
<path d="M3066 3584 c-10 -27 -7 -54 8 -54 8 0 17 -6 19 -12 8 -18 8 33 1 60
-7 26 -19 29 -28 6z"/>
<path d="M3717 3576 c-3 -8 2 -16 14 -19 22 -6 25 6 5 22 -10 9 -15 8 -19 -3z"/>
<path d="M2470 3539 c0 -5 5 -7 10 -4 6 3 10 8 10 11 0 2 -4 4 -10 4 -5 0 -10
-5 -10 -11z"/>
<path d="M2856 3513 c-6 -14 -5 -15 5 -6 7 7 10 15 7 18 -3 3 -9 -2 -12 -12z"/>
<path d="M6186 3504 c-5 -13 -9 -14 -21 -4 -12 10 -15 10 -15 -3 0 -9 4 -18 9
-21 10 -6 47 31 39 39 -3 3 -8 -2 -12 -11z"/>
<path d="M2470 3474 c0 -8 5 -12 10 -9 6 4 8 11 5 16 -9 14 -15 11 -15 -7z"/>
<path d="M2343 3463 c-24 -9 -13 -31 20 -39 54 -13 60 -13 76 -4 12 6 8 12
-20 29 -34 21 -52 24 -76 14z"/>
<path d="M2970 3435 c-10 -12 -10 -15 4 -15 9 0 16 7 16 15 0 8 -2 15 -4 15
-2 0 -9 -7 -16 -15z"/>
<path d="M2979 3374 c-5 -15 -7 -29 -5 -32 5 -4 10 6 22 46 7 23 -7 12 -17
-14z"/>
<path d="M2587 3373 c-4 -3 -7 -11 -7 -17 0 -6 5 -5 12 2 6 6 9 14 7 17 -3 3
-9 2 -12 -2z"/>
<path d="M2630 3360 c0 -5 9 -10 21 -10 11 0 17 5 14 10 -3 6 -13 10 -21 10
-8 0 -14 -4 -14 -10z"/>
<path d="M6836 3360 c-11 -3 -15 -9 -10 -13 10 -6 42 9 34 16 -3 3 -14 1 -24
-3z"/>
<path d="M3850 3332 c0 -5 7 -9 15 -9 8 0 12 4 9 9 -3 4 -9 8 -15 8 -5 0 -9
-4 -9 -8z"/>
<path d="M2596 3285 c-4 -12 -1 -16 11 -13 18 3 21 20 5 26 -5 1 -12 -4 -16
-13z"/>
<path d="M4115 3020 c3 -5 8 -10 11 -10 2 0 4 5 4 10 0 6 -5 10 -11 10 -5 0
-7 -4 -4 -10z"/>
<path d="M4270 2650 c0 -5 5 -10 10 -10 6 0 10 5 10 10 0 6 -4 10 -10 10 -5 0
-10 -4 -10 -10z"/>
</g>
</svg>
